<svg width="89" height="88" viewBox="0 0 89 88" fill="none" xmlns="http://www.w3.org/2000/svg">
<path d="M19.3806 82.4627C22.4385 82.4627 24.9179 79.984 24.9179 76.9254C24.9179 73.8674 22.4385 71.3881 19.3806 71.3881C16.3226 71.3881 13.8433 73.8674 13.8433 76.9254C13.8433 79.984 16.3226 82.4627 19.3806 82.4627ZM19.3806 74.1567C20.9095 74.1567 22.1492 75.3964 22.1492 76.9254C22.1492 78.4544 20.9095 79.694 19.3806 79.694C17.8516 79.694 16.6119 78.4544 16.6119 76.9254C16.6119 75.3964 17.8516 74.1567 19.3806 74.1567Z" fill="#F5F3F6"/>
<path d="M80.2909 85.2313V34.6386L44.2984 11.6032L13.2383 31.4812L12.5015 25.9439C14.0663 25.0247 15.2891 23.6214 15.9846 21.9458L44.2984 3.81636L86.4663 30.8026L87.9588 28.474L44.2984 0.528585L16.5869 18.2686C16.3213 9.78559 9.66122 1.6378 9.37191 1.28902L8.30595 0L7.24135 1.29172C6.94258 1.64997 0 10.1668 0 18.7837C0.00473159 21.7288 1.56818 24.4515 4.11039 25.9392L1.39649 46.2891L1.38433 88H4.15298V47.8545H12.4589V64.5902L10.2743 65.8508H6.92163V88H73.3693V65.8508H70.3891L66.6362 51.8913L63.679 52.6835V32.627H24.9179V57.3968L15.2276 62.9922V46.4702L13.6398 34.5115L44.2984 14.8896L77.5222 36.1533V88H88.5969V85.2313H80.2909ZM4.34968 45.0859L6.76954 26.9416C7.78413 27.139 8.82778 27.139 9.84237 26.9416L12.2622 45.0859H4.34968ZM9.69028 24.1243V18.7837H6.92163V24.1243C4.48419 23.495 2.77812 21.3009 2.76865 18.7837C2.76865 13.0808 6.43833 7.13725 8.30595 4.48216C10.1776 7.12914 13.8433 13.0517 13.8433 18.7837C13.8338 21.3009 12.1277 23.495 9.69028 24.1243ZM42.9141 85.2313H31.8395V68.6194H42.9141V85.2313ZM56.7574 85.2313H45.6828V68.6194H56.7574V85.2313ZM70.6006 68.6194V85.2313H59.526V68.6194H70.6006ZM64.6814 55.2818L67.5217 65.8508H25.2531L64.6814 55.2818ZM45.6828 35.3956H60.9103V48.7461L55.6583 39.6513L45.6828 45.4104V35.3956ZM27.6865 35.3956H42.9141V46.4702H27.6865V35.3956ZM27.6865 49.2389H39.0491L27.6865 55.7996V49.2389ZM54.645 43.4332L60.4811 53.5385L16.8985 65.2255L54.645 43.4332ZM29.0708 68.6194V85.2313H9.69028V68.6194H29.0708Z" fill="#F5F3F6"/>
</svg>
