<svg width="71" height="88" viewBox="0 0 71 88" fill="none" xmlns="http://www.w3.org/2000/svg">
<path d="M60.6183 88H10.3495C7.60558 87.9969 4.97497 86.9142 3.03475 84.9895C1.09452 83.0648 0.00313051 80.4553 0 77.7333V10.2667C0.00313051 7.54473 1.09452 4.93517 3.03475 3.01047C4.97497 1.08577 7.60558 0.00310546 10.3495 0H60.6183C63.3622 0.00310546 65.9928 1.08577 67.933 3.01047C69.8732 4.93517 70.9646 7.54473 70.9677 10.2667V77.7333C70.9646 80.4553 69.8732 83.0648 67.933 84.9895C65.9928 86.9142 63.3622 87.9969 60.6183 88ZM10.3495 2.93333C8.38958 2.93566 6.51064 3.70903 5.12479 5.08379C3.73894 6.45855 2.95934 8.32246 2.95699 10.2667V77.7333C2.95934 79.6775 3.73894 81.5415 5.12479 82.9162C6.51064 84.291 8.38958 85.0643 10.3495 85.0667H60.6183C62.5782 85.0643 64.4571 84.291 65.843 82.9162C67.2288 81.5415 68.0084 79.6775 68.0108 77.7333V10.2667C68.0084 8.32246 67.2288 6.45855 65.843 5.08379C64.4571 3.70903 62.5782 2.93566 60.6183 2.93333H10.3495Z" fill="#F5F3F6"/>
<path d="M39.9194 82.1333H31.0484C29.872 82.1333 28.7438 81.6698 27.912 80.8446C27.0802 80.0194 26.6129 78.9003 26.6129 77.7333V71.8667C26.6129 70.6997 27.0802 69.5806 27.912 68.7554C28.7438 67.9302 29.872 67.4667 31.0484 67.4667H39.9194C41.0957 67.4667 42.2239 67.9302 43.0557 68.7554C43.8875 69.5806 44.3548 70.6997 44.3548 71.8667V77.7333C44.3548 78.9003 43.8875 80.0194 43.0557 80.8446C42.2239 81.6698 41.0957 82.1333 39.9194 82.1333ZM31.0484 70.4C30.6563 70.4 30.2802 70.5545 30.0029 70.8296C29.7257 71.1046 29.5699 71.4777 29.5699 71.8667V77.7333C29.5699 78.1223 29.7257 78.4954 30.0029 78.7704C30.2802 79.0455 30.6563 79.2 31.0484 79.2H39.9194C40.3115 79.2 40.6875 79.0455 40.9648 78.7704C41.2421 78.4954 41.3979 78.1223 41.3979 77.7333V71.8667C41.3979 71.4777 41.2421 71.1046 40.9648 70.8296C40.6875 70.5545 40.3115 70.4 39.9194 70.4H31.0484Z" fill="#F5F3F6"/>
<path d="M19.2204 82.1333H10.3495C9.1731 82.1333 8.04492 81.6698 7.2131 80.8446C6.38129 80.0194 5.91398 78.9003 5.91398 77.7333V71.8667C5.91398 70.6997 6.38129 69.5806 7.2131 68.7554C8.04492 67.9302 9.1731 67.4667 10.3495 67.4667H19.2204C20.3968 67.4667 21.525 67.9302 22.3568 68.7554C23.1886 69.5806 23.6559 70.6997 23.6559 71.8667V77.7333C23.6559 78.9003 23.1886 80.0194 22.3568 80.8446C21.525 81.6698 20.3968 82.1333 19.2204 82.1333ZM10.3495 70.4C9.95734 70.4 9.58128 70.5545 9.30401 70.8296C9.02674 71.1046 8.87097 71.4777 8.87097 71.8667V77.7333C8.87097 78.1223 9.02674 78.4954 9.30401 78.7704C9.58128 79.0455 9.95734 79.2 10.3495 79.2H19.2204C19.6126 79.2 19.9886 79.0455 20.2659 78.7704C20.5432 78.4954 20.6989 78.1223 20.6989 77.7333V71.8667C20.6989 71.4777 20.5432 71.1046 20.2659 70.8296C19.9886 70.5545 19.6126 70.4 19.2204 70.4H10.3495Z" fill="#F5F3F6"/>
<path d="M60.6183 82.1333H51.7473C50.5709 82.1333 49.4428 81.6698 48.611 80.8446C47.7791 80.0194 47.3118 78.9003 47.3118 77.7333V54.2667C47.3118 53.0997 47.7791 51.9806 48.611 51.1554C49.4428 50.3302 50.5709 49.8667 51.7473 49.8667H60.6183C61.7946 49.8667 62.9228 50.3302 63.7546 51.1554C64.5865 51.9806 65.0538 53.0997 65.0538 54.2667V77.7333C65.0538 78.9003 64.5865 80.0194 63.7546 80.8446C62.9228 81.6698 61.7946 82.1333 60.6183 82.1333ZM51.7473 52.8C51.3552 52.8 50.9791 52.9545 50.7019 53.2296C50.4246 53.5046 50.2688 53.8777 50.2688 54.2667V77.7333C50.2688 78.1223 50.4246 78.4954 50.7019 78.7704C50.9791 79.0455 51.3552 79.2 51.7473 79.2H60.6183C61.0104 79.2 61.3865 79.0455 61.6637 78.7704C61.941 78.4954 62.0968 78.1223 62.0968 77.7333V54.2667C62.0968 53.8777 61.941 53.5046 61.6637 53.2296C61.3865 52.9545 61.0104 52.8 60.6183 52.8H51.7473Z" fill="#F5F3F6"/>
<path d="M39.9194 64.5333H31.0484C29.872 64.5333 28.7438 64.0698 27.912 63.2446C27.0802 62.4194 26.6129 61.3003 26.6129 60.1333V54.2667C26.6129 53.0997 27.0802 51.9806 27.912 51.1554C28.7438 50.3302 29.872 49.8667 31.0484 49.8667H39.9194C41.0957 49.8667 42.2239 50.3302 43.0557 51.1554C43.8875 51.9806 44.3548 53.0997 44.3548 54.2667V60.1333C44.3548 61.3003 43.8875 62.4194 43.0557 63.2446C42.2239 64.0698 41.0957 64.5333 39.9194 64.5333ZM31.0484 52.8C30.6563 52.8 30.2802 52.9545 30.0029 53.2296C29.7257 53.5046 29.5699 53.8777 29.5699 54.2667V60.1333C29.5699 60.5223 29.7257 60.8954 30.0029 61.1704C30.2802 61.4455 30.6563 61.6 31.0484 61.6H39.9194C40.3115 61.6 40.6875 61.4455 40.9648 61.1704C41.2421 60.8954 41.3979 60.5223 41.3979 60.1333V54.2667C41.3979 53.8777 41.2421 53.5046 40.9648 53.2296C40.6875 52.9545 40.3115 52.8 39.9194 52.8H31.0484Z" fill="#F5F3F6"/>
<path d="M19.2204 64.5333H10.3495C9.1731 64.5333 8.04492 64.0698 7.2131 63.2446C6.38129 62.4194 5.91398 61.3003 5.91398 60.1333V54.2667C5.91398 53.0997 6.38129 51.9806 7.2131 51.1554C8.04492 50.3302 9.1731 49.8667 10.3495 49.8667H19.2204C20.3968 49.8667 21.525 50.3302 22.3568 51.1554C23.1886 51.9806 23.6559 53.0997 23.6559 54.2667V60.1333C23.6559 61.3003 23.1886 62.4194 22.3568 63.2446C21.525 64.0698 20.3968 64.5333 19.2204 64.5333ZM10.3495 52.8C9.95734 52.8 9.58128 52.9545 9.30401 53.2296C9.02674 53.5046 8.87097 53.8777 8.87097 54.2667V60.1333C8.87097 60.5223 9.02674 60.8954 9.30401 61.1704C9.58128 61.4455 9.95734 61.6 10.3495 61.6H19.2204C19.6126 61.6 19.9886 61.4455 20.2659 61.1704C20.5432 60.8954 20.6989 60.5223 20.6989 60.1333V54.2667C20.6989 53.8777 20.5432 53.5046 20.2659 53.2296C19.9886 52.9545 19.6126 52.8 19.2204 52.8H10.3495Z" fill="#F5F3F6"/>
<path d="M39.9194 46.9333H31.0484C29.872 46.9333 28.7438 46.4698 27.912 45.6446C27.0802 44.8194 26.6129 43.7003 26.6129 42.5333V36.6667C26.6129 35.4997 27.0802 34.3806 27.912 33.5554C28.7438 32.7302 29.872 32.2667 31.0484 32.2667H39.9194C41.0957 32.2667 42.2239 32.7302 43.0557 33.5554C43.8875 34.3806 44.3548 35.4997 44.3548 36.6667V42.5333C44.3548 43.7003 43.8875 44.8194 43.0557 45.6446C42.2239 46.4698 41.0957 46.9333 39.9194 46.9333ZM31.0484 35.2C30.6563 35.2 30.2802 35.3545 30.0029 35.6296C29.7257 35.9046 29.5699 36.2777 29.5699 36.6667V42.5333C29.5699 42.9223 29.7257 43.2954 30.0029 43.5704C30.2802 43.8455 30.6563 44 31.0484 44H39.9194C40.3115 44 40.6875 43.8455 40.9648 43.5704C41.2421 43.2954 41.3979 42.9223 41.3979 42.5333V36.6667C41.3979 36.2777 41.2421 35.9046 40.9648 35.6296C40.6875 35.3545 40.3115 35.2 39.9194 35.2H31.0484Z" fill="#F5F3F6"/>
<path d="M19.2204 46.9333H10.3495C9.1731 46.9333 8.04492 46.4698 7.2131 45.6446C6.38129 44.8194 5.91398 43.7003 5.91398 42.5333V36.6667C5.91398 35.4997 6.38129 34.3806 7.2131 33.5554C8.04492 32.7302 9.1731 32.2667 10.3495 32.2667H19.2204C20.3968 32.2667 21.525 32.7302 22.3568 33.5554C23.1886 34.3806 23.6559 35.4997 23.6559 36.6667V42.5333C23.6559 43.7003 23.1886 44.8194 22.3568 45.6446C21.525 46.4698 20.3968 46.9333 19.2204 46.9333ZM10.3495 35.2C9.95734 35.2 9.58128 35.3545 9.30401 35.6296C9.02674 35.9046 8.87097 36.2777 8.87097 36.6667V42.5333C8.87097 42.9223 9.02674 43.2954 9.30401 43.5704C9.58128 43.8455 9.95734 44 10.3495 44H19.2204C19.6126 44 19.9886 43.8455 20.2659 43.5704C20.5432 43.2954 20.6989 42.9223 20.6989 42.5333V36.6667C20.6989 36.2777 20.5432 35.9046 20.2659 35.6296C19.9886 35.3545 19.6126 35.2 19.2204 35.2H10.3495Z" fill="#F5F3F6"/>
<path d="M60.6183 46.9333H51.7473C50.5709 46.9333 49.4428 46.4698 48.611 45.6446C47.7791 44.8194 47.3118 43.7003 47.3118 42.5333V36.6667C47.3118 35.4997 47.7791 34.3806 48.611 33.5554C49.4428 32.7302 50.5709 32.2667 51.7473 32.2667H60.6183C61.7946 32.2667 62.9228 32.7302 63.7546 33.5554C64.5865 34.3806 65.0538 35.4997 65.0538 36.6667V42.5333C65.0538 43.7003 64.5865 44.8194 63.7546 45.6446C62.9228 46.4698 61.7946 46.9333 60.6183 46.9333ZM51.7473 35.2C51.3552 35.2 50.9791 35.3545 50.7019 35.6296C50.4246 35.9046 50.2688 36.2777 50.2688 36.6667V42.5333C50.2688 42.9223 50.4246 43.2954 50.7019 43.5704C50.9791 43.8455 51.3552 44 51.7473 44H60.6183C61.0104 44 61.3865 43.8455 61.6637 43.5704C61.941 43.2954 62.0968 42.9223 62.0968 42.5333V36.6667C62.0968 36.2777 61.941 35.9046 61.6637 35.6296C61.3865 35.3545 61.0104 35.2 60.6183 35.2H51.7473Z" fill="#F5F3F6"/>
<path d="M60.6183 26.4H10.3495C9.1731 26.4 8.04492 25.9364 7.2131 25.1113C6.38129 24.2861 5.91398 23.167 5.91398 22V10.2667C5.91398 9.09971 6.38129 7.98056 7.2131 7.1554C8.04492 6.33024 9.1731 5.86667 10.3495 5.86667H60.6183C61.7946 5.86667 62.9228 6.33024 63.7546 7.1554C64.5865 7.98056 65.0538 9.09971 65.0538 10.2667V22C65.0538 23.167 64.5865 24.2861 63.7546 25.1113C62.9228 25.9364 61.7946 26.4 60.6183 26.4ZM10.3495 8.8C9.95734 8.8 9.58128 8.95452 9.30401 9.22958C9.02674 9.50463 8.87097 9.87768 8.87097 10.2667V22C8.87097 22.389 9.02674 22.762 9.30401 23.0371C9.58128 23.3121 9.95734 23.4667 10.3495 23.4667H60.6183C61.0104 23.4667 61.3865 23.3121 61.6637 23.0371C61.941 22.762 62.0968 22.389 62.0968 22V10.2667C62.0968 9.87768 61.941 9.50463 61.6637 9.22958C61.3865 8.95452 61.0104 8.8 60.6183 8.8H10.3495Z" fill="#F5F3F6"/>
<path d="M56.1828 22C55.0064 22 53.8783 21.5364 53.0464 20.7113C52.2146 19.8861 51.7473 18.767 51.7473 17.6V14.6667C51.7473 13.4997 52.2146 12.3806 53.0464 11.5554C53.8783 10.7302 55.0064 10.2667 56.1828 10.2667C57.3592 10.2667 58.4873 10.7302 59.3192 11.5554C60.151 12.3806 60.6183 13.4997 60.6183 14.6667V17.6C60.6183 18.767 60.151 19.8861 59.3192 20.7113C58.4873 21.5364 57.3592 22 56.1828 22ZM56.1828 13.2C55.7907 13.2 55.4146 13.3545 55.1373 13.6296C54.8601 13.9046 54.7043 14.2777 54.7043 14.6667V17.6C54.7043 17.989 54.8601 18.362 55.1373 18.6371C55.4146 18.9121 55.7907 19.0667 56.1828 19.0667C56.5749 19.0667 56.951 18.9121 57.2283 18.6371C57.5055 18.362 57.6613 17.989 57.6613 17.6V14.6667C57.6613 14.2777 57.5055 13.9046 57.2283 13.6296C56.951 13.3545 56.5749 13.2 56.1828 13.2Z" fill="#F5F3F6"/>
</svg>
