<svg width="79" height="79" viewBox="0 0 79 79" fill="none" xmlns="http://www.w3.org/2000/svg">
<path d="M77.6833 10.5333C78.4105 10.5333 79 9.9438 79 9.21667V1.31667C79 0.589538 78.4105 0 77.6833 0H1.31667C0.589538 0 0 0.589538 0 1.31667V9.21667C0 9.9438 0.589538 10.5333 1.31667 10.5333H3.95V76.3667H1.31667C0.589538 76.3667 0 76.9562 0 77.6833C0 78.4105 0.589538 79 1.31667 79H77.6833C78.4105 79 79 78.4105 79 77.6833C79 76.9562 78.4105 76.3667 77.6833 76.3667H75.05V10.5333H77.6833ZM67.15 76.3667H11.85V68.4667H67.15V76.3667ZM67.15 65.8333H11.85V57.9333H67.15V65.8333ZM67.15 55.3H11.85V47.4H67.15V55.3ZM67.15 44.7667H11.85V36.8667H67.15V44.7667ZM67.15 34.2333H11.85V26.3333H67.15V34.2333ZM67.15 23.7H11.85V15.8H67.15V23.7ZM72.4167 76.3667H69.7833V14.4833C69.7833 13.7562 69.1938 13.1667 68.4667 13.1667H10.5333C9.8062 13.1667 9.21667 13.7562 9.21667 14.4833V76.3667H6.58333V10.5333H72.4167V76.3667ZM2.63333 7.9V2.63333H76.3667V7.9H2.63333Z" fill="#F5F3F6"/>
<path d="M35.55 75.05H43.45C44.1771 75.05 44.7667 74.4605 44.7667 73.7333C44.7667 73.0062 44.1771 72.4167 43.45 72.4167H35.55C34.8229 72.4167 34.2333 73.0062 34.2333 73.7333C34.2333 74.4605 34.8229 75.05 35.55 75.05Z" fill="#F5F3F6"/>
</svg>
