<svg width="66" height="88" viewBox="0 0 66 88" fill="none" xmlns="http://www.w3.org/2000/svg">
<path d="M63.7227 31.1274C64.433 31.1274 65.0088 30.5504 65.0088 29.8383V15.3569C65.0088 14.7088 64.6269 14.1205 64.0355 13.8572L33.1685 0.141002C32.7463 -0.0470294 32.2624 -0.0468575 31.841 0.140658L0.972856 13.8573C0.381734 14.1203 0 14.7088 0 15.3569V42.1334C0 52.1415 3.0146 61.7737 8.71763 69.9889C14.4207 78.204 22.3843 84.3851 31.7472 87.8639C32.2354 88.0454 32.7736 88.0454 33.262 87.8637C42.6249 84.385 50.5883 78.2038 56.2914 69.9887C61.9944 61.7736 65.009 52.1413 65.009 42.1334V35.8541C65.009 35.142 64.4332 34.565 63.7228 34.565C63.0125 34.565 62.4367 35.142 62.4367 35.8541V42.1334C62.4367 61.3085 50.4134 78.6753 32.5047 85.3954C14.594 78.6763 2.57216 61.3097 2.57216 42.1334V15.9668L32.5043 2.66602L62.4365 15.9668V29.8383C62.4365 30.5504 63.0124 31.1274 63.7227 31.1274Z" fill="#F5F3F6"/>
<path d="M39.0623 43.152C39.5646 43.6552 40.379 43.6552 40.8811 43.152L45.181 38.8424C45.9769 38.0445 45.9769 36.7467 45.181 35.949L41.7006 32.4605C40.9047 31.6628 39.6098 31.663 38.8138 32.4605L29.2881 42.0078L25.0717 37.7817C24.2758 36.9841 22.9807 36.9839 22.1849 37.7817L18.7041 41.2703C17.9084 42.0681 17.9086 43.366 18.7043 44.1636L27.8447 53.3246C28.6409 54.1224 29.9355 54.1219 30.7315 53.3246L36.5618 47.4812C37.0641 46.9776 37.0641 46.1615 36.5618 45.6581C36.0595 45.1548 35.2451 45.1548 34.743 45.6581L29.2881 51.1255L20.8987 42.717L23.6283 39.9812L27.8447 44.2073C28.6407 45.0051 29.9356 45.0045 30.7315 44.2073L40.257 34.66L42.9866 37.3957L39.0621 41.3291C38.5598 41.8325 38.5598 42.6486 39.0623 43.152Z" fill="#F5F3F6"/>
<path d="M32.5044 82.7881C33.2147 82.7881 33.7905 82.2111 33.7905 81.499V62.9389C44.5767 62.2712 53.148 53.2644 53.148 42.2888C53.148 31.3132 44.5768 22.306 33.7905 21.6383V6.47547C33.7905 5.76339 33.2147 5.18641 32.5044 5.18641C31.7941 5.18641 31.2182 5.76339 31.2182 6.47547V21.6392C28.3466 21.8195 25.5241 22.6005 22.9854 23.9249C22.3553 24.2536 22.1102 25.032 22.4383 25.6635C22.7665 26.2953 23.5432 26.5407 24.1731 26.2116C26.3813 25.0595 28.7458 24.3921 31.2182 24.2209V30.4216C31.2182 31.1337 31.7941 31.7107 32.5044 31.7107C33.2147 31.7107 33.7905 31.1337 33.7905 30.4216V24.2219C43.1572 24.8852 50.5757 32.7349 50.5757 42.2886C50.5757 51.8421 43.1572 59.6918 33.7905 60.3551V57.2701C33.7905 56.558 33.2147 55.981 32.5044 55.981C31.7941 55.981 31.2182 56.558 31.2182 57.2701V60.3551C21.8515 59.6918 14.433 51.8421 14.433 42.2886C14.433 37.5137 16.2709 33.0077 19.6081 29.6006C20.1057 29.0925 20.0982 28.2765 19.5912 27.7779C19.0843 27.2791 18.2699 27.2866 17.7724 27.7947C13.9602 31.6868 11.8607 36.8341 11.8607 42.2888C11.8607 53.2644 20.4321 62.2713 31.2182 62.9389V81.4988C31.2182 82.2109 31.7941 82.7881 32.5044 82.7881Z" fill="#F5F3F6"/>
</svg>
