<svg width="78" height="88" viewBox="0 0 78 88" fill="none" xmlns="http://www.w3.org/2000/svg">
<path d="M15.8376 25.4643C23.2147 27.0917 30.6181 27.9513 37.8508 28.0208C37.8842 28.0231 37.9188 28.0255 37.9534 28.0255H39.0452C39.0798 28.0255 39.1144 28.0243 39.1478 28.0208C46.3543 27.9513 53.7302 27.0976 61.0835 25.482C61.6752 25.4125 62.1346 24.9156 62.1346 24.3127C62.1346 24.1879 62.1143 24.0666 62.0785 23.9535C60.9367 14.0905 53.7875 5.9666 44.6922 3.303V1.17754C44.6922 0.527538 44.1589 0 43.4991 0C42.8393 0 42.306 0.527538 42.306 1.17754V2.74603C41.1737 2.54231 40.0247 2.39865 38.8519 2.36921C38.8089 2.3645 38.7648 2.36215 38.7206 2.36215H38.7087C38.7039 2.36097 38.698 2.36215 38.6932 2.36215H38.309C38.3066 2.36215 38.3054 2.36215 38.3042 2.36215C38.2649 2.36215 38.2267 2.36333 38.1873 2.36804C37.1373 2.39159 36.1065 2.51287 35.0864 2.67773V1.17754C35.0864 0.527538 34.553 0 33.8932 0C33.2334 0 32.7001 0.527538 32.7001 1.17754V3.19467C23.3519 5.75229 15.9641 14.074 14.8962 24.1914C14.8604 24.5235 14.9714 24.8544 15.1981 25.1016C15.3675 25.2877 15.5918 25.4137 15.8376 25.4643ZM32.6989 5.62158V10.6685C32.6989 11.3185 33.2322 11.8461 33.892 11.8461C34.5518 11.8461 35.0852 11.3185 35.0852 10.6685V5.05283C36.1984 4.85265 37.333 4.72783 38.488 4.71723C39.7849 4.72901 41.0604 4.8656 42.3036 5.11524V10.6685C42.3036 11.3185 42.8369 11.8461 43.4967 11.8461C44.1565 11.8461 44.6899 11.3185 44.6899 10.6685V5.76289C52.3128 8.26987 58.307 15.0831 59.5932 23.3919C52.5132 24.8814 45.4201 25.648 38.4987 25.6704C31.575 25.648 24.4842 24.8814 17.4042 23.3919C18.7118 14.9348 24.8935 8.01552 32.6989 5.62158ZM38.6944 22.2367C35.5863 22.2367 32.471 21.8964 29.4357 21.2275C28.7926 21.0851 28.3857 20.4562 28.5301 19.8216C28.6733 19.1869 29.3116 18.7924 29.9523 18.929C35.6889 20.1937 41.7035 20.1937 47.4341 18.929C48.076 18.7912 48.7143 19.1869 48.8575 19.8216C49.0018 20.4562 48.5962 21.0862 47.9531 21.2275C44.9189 21.8976 41.8025 22.2367 38.6944 22.2367ZM62.3708 30.7656C62.3446 29.886 62.2646 27.2106 60.3819 26.5088C58.5123 25.8105 56.5651 27.7358 56.1928 28.1279C55.743 28.6025 55.7693 29.3443 56.2489 29.7894C56.7262 30.2345 57.4838 30.2098 57.9336 29.7388C58.5075 29.1383 59.2818 28.6672 59.524 28.7061C59.5276 28.7085 59.9321 29.0405 59.9846 30.8363C60.1349 35.8655 56.2298 37.2656 56.0699 37.3198C55.6929 37.4435 55.4018 37.7461 55.298 38.1241L55.2359 38.3454C55.2156 38.4161 55.2037 38.4879 55.1978 38.5598C55.1321 39.3334 55.0283 40.0705 54.8995 40.7841L48.3599 42.3373C41.9468 41.6555 35.4479 41.6543 29.0324 42.3373L22.4929 40.7841C22.364 40.0717 22.2602 39.3346 22.1946 38.5609C22.1886 38.4879 22.1755 38.4161 22.1564 38.3466L22.0944 38.1252C21.9894 37.7473 21.6994 37.4446 21.3224 37.321C21.2819 37.308 17.255 35.9244 17.4078 30.8374C17.4603 29.0652 17.854 28.719 17.8444 28.7167C18.1165 28.6719 18.8837 29.1406 19.4564 29.7388C19.9086 30.2145 20.6638 30.2381 21.1423 29.7941C21.6231 29.3502 21.6493 28.6048 21.1995 28.1291C20.8261 27.737 18.8813 25.8117 17.0104 26.51C15.1277 27.2118 15.0477 29.8883 15.0215 30.7668C14.8771 35.6289 17.817 38.2854 19.8668 39.2686C19.9622 40.1812 20.1114 41.0503 20.2904 41.8934C20.2975 41.9487 20.3154 41.9982 20.3297 42.0524C21.715 48.3451 25.3242 52.6855 29.3904 55.2702C29.4273 55.3009 29.4703 55.3209 29.5109 55.348C32.5868 57.2721 35.9025 58.2117 38.698 58.2117C41.5114 58.2117 44.8509 57.2603 47.9435 55.3103C47.9722 55.2891 48.0044 55.2773 48.0306 55.2538C52.0813 52.6702 55.675 48.3416 57.0602 42.0724C57.0781 42.01 57.0996 41.9523 57.1068 41.8863C57.2857 41.0456 57.4337 40.1789 57.5291 39.2698C59.5753 38.2854 62.5152 35.6289 62.3708 30.7656ZM23.1264 43.3559L27.8524 44.4781L28.6721 51.8C26.3503 49.8489 24.2957 47.1005 23.1264 43.3559ZM31.2767 53.6264L30.2637 44.577C35.8643 44.0436 41.5257 44.0436 47.125 44.577L46.1121 53.6276C43.3822 55.1961 40.6117 55.8555 38.6944 55.8555C36.7782 55.8555 34.0078 55.1949 31.2767 53.6264ZM48.7179 51.8L49.5375 44.4781L54.2635 43.3559C53.0931 47.1016 51.0385 49.8489 48.7179 51.8ZM42.8071 59.4411H34.5817C33.9219 59.4411 33.3885 59.9686 33.3885 60.6186C33.3885 62.6523 34.4361 64.0712 35.6626 64.9909C35.6018 65.2216 35.5147 65.6244 35.4013 66.1884L42.6675 69.7858C42.2296 67.4025 41.88 65.582 41.7249 64.9909C42.9515 64.0712 43.999 62.6523 43.999 60.6186C44.0002 59.9686 43.4669 59.4411 42.8071 59.4411ZM41.3777 61.7962C40.7979 63.1374 39.3076 63.7238 38.6956 63.9134C38.093 63.725 36.5969 63.1362 36.0134 61.7962H41.3777ZM31.2886 61.6843L24.489 64.8342C24.3279 64.9084 24.1549 64.9461 23.9819 64.9461C23.7695 64.9461 23.5583 64.8908 23.3698 64.7789C23.0286 64.5787 22.8114 64.2231 22.7912 63.8321L22.4774 58.1764C21.1888 58.5721 2.38626 64.7459 2.38626 86.8213C2.38626 87.4713 1.85293 87.9988 1.19313 87.9988C0.533329 87.9988 0 87.4713 0 86.8213C0 62.6664 21.6255 55.9685 21.8438 55.9038C22.0132 55.852 22.1839 55.8472 22.3497 55.8696L22.2531 54.1292C22.2173 53.4804 22.7208 52.9246 23.3782 52.8893C24.0272 52.8563 24.5987 53.3509 24.6345 54.0009L25.076 61.9599L30.2745 59.5518C30.8746 59.2751 31.5833 59.5294 31.8613 60.117C32.1417 60.707 31.8852 61.4076 31.2886 61.6843ZM17.4006 82.9684V86.8225C17.4006 87.4725 16.8673 88 16.2075 88C15.5477 88 15.0143 87.4725 15.0143 86.8225V82.9684C15.0143 82.3184 15.5477 81.7908 16.2075 81.7908C16.8673 81.7908 17.4006 82.3184 17.4006 82.9684ZM77.1692 86.8225C77.1692 87.4725 76.6359 88 75.9761 88C75.3163 88 74.783 87.4725 74.783 86.8225C74.783 64.899 55.7323 58.5073 54.6919 58.1776L54.3781 63.8333C54.3566 64.2243 54.1406 64.5787 53.7994 64.7801C53.6121 64.8908 53.3997 64.9473 53.1873 64.9473C53.0143 64.9473 52.8413 64.9108 52.6802 64.8354L45.8806 61.6855C45.284 61.4088 45.0275 60.7081 45.3079 60.1194C45.5871 59.5306 46.2946 59.2774 46.8948 59.5541L52.0932 61.9622L52.5347 54.0032C52.5693 53.3544 53.1503 52.861 53.791 52.8916C54.4497 52.9269 54.9532 53.4827 54.9162 54.1316L54.8195 55.872C54.9842 55.8496 55.1548 55.8555 55.3254 55.9061C55.5438 55.9697 77.1692 62.6676 77.1692 86.8225ZM62.1537 82.9684V86.8225C62.1537 87.4725 61.6204 88 60.9606 88C60.3008 88 59.7674 87.4725 59.7674 86.8225V82.9684C59.7674 82.3184 60.3008 81.7908 60.9606 81.7908C61.6204 81.7908 62.1537 82.3184 62.1537 82.9684ZM37.2423 31.1177C37.2423 31.1177 37.2065 31.3485 37.1373 31.7265H40.2514C40.1822 31.3485 40.1464 31.1177 40.1464 31.1177H53.7887C53.7887 31.1177 53.6813 37.1302 51.7424 38.6846C49.4922 40.4886 44.6887 41.0185 42.7272 38.8989C41.861 37.9627 41.1952 35.8644 40.7549 34.0816H36.6327C36.1936 35.8644 35.5266 37.9616 34.6604 38.8989C32.6989 41.0196 27.8954 40.4898 25.6451 38.6846C23.7063 37.1302 23.5989 31.1177 23.5989 31.1177H37.2423ZM34.9408 68.5953L43.1937 72.6802C43.3786 73.7129 43.5707 74.788 43.7616 75.8678L34.4588 71.2248C34.6294 70.2804 34.7928 69.3925 34.9408 68.5953ZM44.8199 81.8709L33.5317 76.4118C33.6964 75.4827 33.861 74.5548 34.0233 73.6469L44.2735 78.7634C44.4644 79.8444 44.6481 80.8935 44.8199 81.8709ZM45.3234 84.737C45.4749 85.5966 45.6014 86.3114 45.6933 86.8225H43.9585L32.7037 81.1126C32.8325 80.3778 32.9674 79.6124 33.1058 78.8281L45.3234 84.737ZM32.2765 83.5442L38.7397 86.8225H31.6979C31.8279 86.0912 32.0308 84.9396 32.2765 83.5442Z" fill="#F5F3F6"/>
</svg>
