<svg width="86" height="88" viewBox="0 0 86 88" fill="none" xmlns="http://www.w3.org/2000/svg">
<path d="M82.4282 51.5443H81.1113V39.6823C81.1113 37.8044 80.1766 36.1417 78.7492 35.1314V33.5163C78.7492 31.1735 76.8433 29.2675 74.5005 29.2675H73.5172L77.2793 23.7469C78.5404 21.8965 78.0608 19.365 76.2104 18.1037L50.6817 0.706535C49.7853 0.0955188 48.7049 -0.129981 47.6386 0.0723157C46.5728 0.274269 45.6493 0.879097 45.0385 1.7756L23.0039 34.1093H16.8723L18.3516 19.1338C18.3683 18.965 18.4779 18.8187 18.6309 18.7612C20.5368 18.0425 22.1886 16.7005 23.2817 14.9825C23.3678 14.8472 23.5302 14.7699 23.6983 14.7869L33.3156 15.737C34.0051 15.8039 34.6186 15.3017 34.6866 14.6124C34.7547 13.9232 34.2513 13.3094 33.562 13.2414L23.9448 12.2913C22.8284 12.1819 21.7639 12.6964 21.1657 13.6362C20.362 14.8995 19.1476 15.886 17.7463 16.4144C16.6915 16.8121 15.9672 17.7595 15.8558 18.8871L14.3523 34.1091H12.7533L15.0929 10.424C15.1771 9.57151 15.938 8.9452 16.7915 9.03062L36.2261 10.9505C36.9153 11.017 37.5291 10.5151 37.5972 9.82588C37.6652 9.13666 37.1618 8.5229 36.4726 8.45484L17.038 6.53499C14.8098 6.31516 12.8172 7.94884 12.5971 10.1774L10.7113 29.2675H7.49977C5.15711 29.2675 3.25102 31.1735 3.25102 33.5163V34.618C1.33444 35.5004 0 37.4378 0 39.6823V82.4268C0 85.4999 2.5001 88 5.57339 88H75.5381C78.6112 88 81.1113 85.4999 81.1113 82.4268V70.565H82.4282C83.9826 70.565 85.2471 69.3005 85.2471 67.7462V54.3632C85.2473 52.8088 83.9826 51.5443 82.4282 51.5443ZM74.5005 31.7755C75.4605 31.7754 76.2414 32.5564 76.2414 33.5165V34.1553C76.0107 34.1261 75.7765 34.1094 75.5381 34.1094H70.2177L71.808 31.7755H74.5005ZM47.1108 3.18772C47.3445 2.84483 47.6977 2.61349 48.1054 2.53614C48.2029 2.51775 48.3007 2.50847 48.3978 2.50847C48.7066 2.50847 49.0085 2.60094 49.2694 2.77866L74.7981 20.1759C75.5059 20.6583 75.6895 21.6267 75.2072 22.3344L67.183 34.1089H65.2574L69.1914 28.3361C69.8294 27.3999 69.882 26.2085 69.3282 25.2266C68.5922 23.922 68.2939 22.386 68.4881 20.9012C68.6325 19.7965 68.1464 18.7182 67.2197 18.0867L53.9856 9.06809C53.0587 8.43644 51.8772 8.37852 50.902 8.91701C49.5915 9.6406 48.0527 9.92471 46.5694 9.71709C45.4694 9.56274 44.3537 10.0595 43.7252 10.9816L27.9644 34.1091H26.0387L47.1108 3.18772ZM47.663 24.4815C42.2024 24.4815 37.7199 28.7394 37.3546 34.1091H30.9989L45.7971 12.3939H45.7973C45.8814 12.2703 46.0208 12.1967 46.1639 12.1967C46.183 12.1967 46.2021 12.1981 46.2212 12.2007C48.2386 12.4829 50.3312 12.0969 52.1139 11.1125C52.2542 11.0349 52.4343 11.046 52.5731 11.1406L65.8074 20.1594C65.9459 20.2539 66.022 20.4175 66.0014 20.5763C65.7372 22.5957 66.1432 24.6847 67.144 26.4587C67.2243 26.6012 67.2145 26.7838 67.1193 26.9238L62.2229 34.1089H57.9719C57.6063 28.7394 53.124 24.4815 47.663 24.4815ZM55.4572 34.1093H39.869C40.2282 30.1236 43.5856 26.9895 47.663 26.9895C51.7406 26.9893 55.0982 30.1236 55.4572 34.1093ZM5.75885 33.5163C5.75885 32.5562 6.53968 31.7752 7.49977 31.7752H10.4636L10.2331 34.1091H5.75885V33.5163ZM2.50783 39.6823C2.50783 37.9921 3.883 36.6169 5.57339 36.6169H75.5381C77.2285 36.6169 78.6035 37.9921 78.6035 39.6823V43.1617H2.50783V39.6823ZM78.6035 82.4268C78.6035 84.117 77.2285 85.4922 75.5381 85.4922H5.57339C3.883 85.4922 2.50783 84.117 2.50783 82.4268V78.9473H9.26974C9.9624 78.9473 10.5236 78.386 10.5236 77.6935C10.5236 77.001 9.96222 76.4397 9.26974 76.4397H2.50783V45.6696H78.6035V51.5443H66.681C62.9245 51.5443 59.6706 53.734 58.1263 56.9035C58.1211 56.9142 58.1153 56.9245 58.1099 56.9351C58.0969 56.9621 58.0855 56.9901 58.0728 57.0173C57.8889 57.408 57.7291 57.8124 57.5989 58.2297C57.5986 58.2309 57.5983 58.2319 57.5979 58.2331C57.3203 59.125 57.1706 60.0725 57.1706 61.0546C57.1706 66.2987 61.4369 70.565 66.6808 70.565H78.6033V76.4397H17.2987C16.6061 76.4397 16.0449 77.001 16.0449 77.6935C16.0449 78.386 16.6062 78.9473 17.2987 78.9473H78.6035V82.4268ZM82.7395 67.7461C82.7395 67.9176 82.5999 68.0572 82.4282 68.0572H66.6813C64.0267 68.0572 61.7123 66.5723 60.5251 64.3897C60.4711 64.2905 60.4196 64.1898 60.3703 64.0879C60.2718 63.8839 60.1829 63.6744 60.1044 63.4599C59.829 62.7094 59.6788 61.8992 59.6788 61.0546C59.6788 60.21 59.8292 59.3998 60.1044 58.6494C60.1831 58.4351 60.2719 58.2256 60.3703 58.0214C60.4196 57.9195 60.4711 57.8187 60.5251 57.7196C61.7123 55.5369 64.0267 54.0521 66.6813 54.0521H82.4282C82.5997 54.0521 82.7395 54.1917 82.7395 54.3632V67.7461Z" fill="#F5F3F6"/>
<path d="M66.9751 55.9671C64.1697 55.9671 61.8876 58.2495 61.8876 61.0546C61.8876 63.8598 64.1697 66.142 66.9751 66.142C69.7804 66.142 72.0626 63.8598 72.0626 61.0546C72.0626 58.2495 69.7804 55.9671 66.9751 55.9671ZM66.9751 63.6341C65.5526 63.6341 64.3954 62.4769 64.3954 61.0546C64.3954 59.6324 65.5526 58.475 66.9751 58.475C68.3975 58.475 69.5547 59.6322 69.5547 61.0546C69.5547 62.4771 68.3975 63.6341 66.9751 63.6341Z" fill="#F5F3F6"/>
</svg>
