<svg width="224" height="46" viewBox="0 0 224 46" fill="none" xmlns="http://www.w3.org/2000/svg">
<path d="M47.8067 38.2427C47.59 38.2427 47.4127 38.1737 47.2749 38.0359C47.137 37.8783 47.0681 37.701 47.0681 37.5041V18.3007C47.0681 18.084 47.137 17.9068 47.2749 17.7689C47.4127 17.631 47.59 17.5621 47.8067 17.5621H60.54C60.7566 17.5621 60.9339 17.631 61.0718 17.7689C61.2096 17.9068 61.2786 18.084 61.2786 18.3007V21.2551C61.2786 21.4717 61.2096 21.6588 61.0718 21.8164C60.9339 21.9543 60.7566 22.0232 60.54 22.0232H52.3859V37.5041C52.3859 37.701 52.3071 37.8783 52.1496 38.0359C52.0117 38.1737 51.8344 38.2427 51.6178 38.2427H47.8067ZM62.5623 38.2427C62.4048 38.2427 62.2571 38.1836 62.1192 38.0654C62.001 37.9275 61.9419 37.7798 61.9419 37.6223C61.9419 37.5238 61.9518 37.4351 61.9715 37.3564L68.9142 18.3893C68.9733 18.1727 69.0915 17.9856 69.2688 17.828C69.4657 17.6507 69.7316 17.5621 70.0664 17.5621H74.4389C74.7737 17.5621 75.0298 17.6507 75.207 17.828C75.404 17.9856 75.532 18.1727 75.5911 18.3893L82.5043 37.3564C82.5437 37.4351 82.5634 37.5238 82.5634 37.6223C82.5634 37.7798 82.4945 37.9275 82.3566 38.0654C82.2384 38.1836 82.0907 38.2427 81.9135 38.2427H78.2796C77.9841 38.2427 77.7576 38.1737 77.6001 38.0359C77.4622 37.8783 77.3736 37.7404 77.3342 37.6223L76.182 34.6088H68.2938L67.1712 37.6223C67.1318 37.7404 67.0431 37.8783 66.9053 38.0359C66.7674 38.1737 66.531 38.2427 66.1962 38.2427H62.5623ZM69.5051 30.3545H75.0002L72.2527 22.555L69.5051 30.3545ZM85.6307 38.2427C85.414 38.2427 85.2367 38.1737 85.0989 38.0359C84.961 37.8783 84.8921 37.701 84.8921 37.5041V18.3007C84.8921 18.084 84.961 17.9068 85.0989 17.7689C85.2367 17.631 85.414 17.5621 85.6307 17.5621H93.9029C95.5376 17.5621 96.9557 17.8181 98.1572 18.3302C99.3783 18.8226 100.324 19.5711 100.993 20.5755C101.683 21.58 102.027 22.8504 102.027 24.3867C102.027 25.9033 101.683 27.1539 100.993 28.1387C100.324 29.1235 99.3783 29.8523 98.1572 30.325C96.9557 30.7977 95.5376 31.034 93.9029 31.034H90.3872V37.5041C90.3872 37.701 90.3084 37.8783 90.1508 38.0359C90.013 38.1737 89.8357 38.2427 89.6191 38.2427H85.6307ZM90.2986 26.957H93.7552C94.6021 26.957 95.2717 26.7403 95.7641 26.307C96.2762 25.8737 96.5323 25.2139 96.5323 24.3276C96.5323 23.5792 96.3156 22.9489 95.8823 22.4368C95.449 21.9247 94.74 21.6687 93.7552 21.6687H90.2986V26.957ZM103.675 38.2427C103.518 38.2427 103.37 38.1836 103.232 38.0654C103.114 37.9275 103.055 37.7798 103.055 37.6223C103.055 37.5238 103.065 37.4351 103.085 37.3564L110.027 18.3893C110.086 18.1727 110.205 17.9856 110.382 17.828C110.579 17.6507 110.845 17.5621 111.179 17.5621H115.552C115.887 17.5621 116.143 17.6507 116.32 17.828C116.517 17.9856 116.645 18.1727 116.704 18.3893L123.617 37.3564C123.657 37.4351 123.676 37.5238 123.676 37.6223C123.676 37.7798 123.608 37.9275 123.47 38.0654C123.351 38.1836 123.204 38.2427 123.026 38.2427H119.393C119.097 38.2427 118.871 38.1737 118.713 38.0359C118.575 37.8783 118.487 37.7404 118.447 37.6223L117.295 34.6088H109.407L108.284 37.6223C108.245 37.7404 108.156 37.8783 108.018 38.0359C107.88 38.1737 107.644 38.2427 107.309 38.2427H103.675ZM110.618 30.3545H116.113L113.366 22.555L110.618 30.3545ZM125.296 38.2427C125.099 38.2427 124.932 38.1836 124.794 38.0654C124.676 37.9275 124.617 37.7601 124.617 37.5632C124.617 37.4253 124.646 37.317 124.705 37.2382L130.732 27.5183L125.237 18.537C125.158 18.4189 125.119 18.3007 125.119 18.1825C125.119 18.0249 125.178 17.8871 125.296 17.7689C125.414 17.631 125.562 17.5621 125.739 17.5621H129.993C130.289 17.5621 130.525 17.6212 130.703 17.7394C130.88 17.8378 131.008 17.9659 131.087 18.1234L135.459 25.4503H137.173V18.3007C137.173 18.084 137.242 17.9068 137.379 17.7689C137.517 17.631 137.695 17.5621 137.911 17.5621H141.545C141.762 17.5621 141.939 17.631 142.077 17.7689C142.215 17.9068 142.284 18.084 142.284 18.3007V25.4503H143.968L148.34 18.1234C148.439 17.9659 148.576 17.8378 148.754 17.7394C148.931 17.6212 149.158 17.5621 149.433 17.5621H153.717C153.894 17.5621 154.042 17.631 154.16 17.7689C154.278 17.8871 154.338 18.0249 154.338 18.1825C154.338 18.3007 154.298 18.4189 154.219 18.537L148.724 27.5183L154.751 37.2382C154.81 37.317 154.84 37.4253 154.84 37.5632C154.84 37.7601 154.771 37.9275 154.633 38.0654C154.515 38.1836 154.357 38.2427 154.16 38.2427H149.788C149.473 38.2427 149.236 38.1737 149.079 38.0359C148.941 37.8783 148.833 37.7601 148.754 37.6813L144.174 30.1477H142.284V37.5041C142.284 37.7207 142.215 37.898 142.077 38.0359C141.939 38.1737 141.762 38.2427 141.545 38.2427H137.911C137.695 38.2427 137.517 38.1737 137.379 38.0359C137.242 37.898 137.173 37.7207 137.173 37.5041V30.1477H135.282L130.703 37.6813C130.624 37.7601 130.506 37.8783 130.348 38.0359C130.21 38.1737 129.984 38.2427 129.669 38.2427H125.296ZM172.366 38.5381C170.514 38.5381 168.919 38.2328 167.58 37.6223C166.24 37.0117 165.197 36.1155 164.448 34.9338C163.719 33.752 163.316 32.2847 163.237 30.5318C163.217 29.7242 163.207 28.8576 163.207 27.9319C163.207 27.0062 163.217 26.1199 163.237 25.273C163.316 23.5595 163.729 22.102 164.478 20.9005C165.226 19.6991 166.27 18.7931 167.609 18.1825C168.949 17.5719 170.534 17.2667 172.366 17.2667C173.666 17.2667 174.867 17.4341 175.97 17.7689C177.073 18.084 178.038 18.5567 178.865 19.187C179.693 19.7976 180.333 20.546 180.786 21.4323C181.258 22.2989 181.505 23.2837 181.524 24.3867C181.544 24.5639 181.485 24.7117 181.347 24.8298C181.229 24.948 181.081 25.0071 180.904 25.0071H176.916C176.66 25.0071 176.463 24.9579 176.325 24.8594C176.187 24.7412 176.069 24.5344 175.97 24.239C175.694 23.1951 175.241 22.486 174.611 22.1118C174.001 21.7179 173.242 21.5209 172.336 21.5209C171.253 21.5209 170.396 21.8262 169.766 22.4368C169.136 23.0277 168.791 24.0223 168.732 25.4207C168.673 27.0358 168.673 28.6902 168.732 30.3841C168.791 31.7825 169.136 32.7869 169.766 33.3975C170.396 33.9884 171.253 34.2838 172.336 34.2838C173.242 34.2838 174.01 34.0869 174.641 33.6929C175.271 33.299 175.714 32.59 175.97 31.5658C176.049 31.2704 176.157 31.0734 176.295 30.9749C176.453 30.8568 176.66 30.7977 176.916 30.7977H180.904C181.081 30.7977 181.229 30.8568 181.347 30.9749C181.485 31.0931 181.544 31.2408 181.524 31.4181C181.505 32.521 181.258 33.5157 180.786 34.402C180.333 35.2686 179.693 36.0171 178.865 36.6473C178.038 37.2579 177.073 37.7306 175.97 38.0654C174.867 38.3805 173.666 38.5381 172.366 38.5381ZM185.369 38.2427C185.153 38.2427 184.976 38.1737 184.838 38.0359C184.7 37.898 184.631 37.7207 184.631 37.5041V18.3007C184.631 18.084 184.7 17.9068 184.838 17.7689C184.976 17.631 185.153 17.5621 185.369 17.5621H201.766C201.983 17.5621 202.16 17.631 202.298 17.7689C202.436 17.9068 202.505 18.084 202.505 18.3007V37.5041C202.505 37.701 202.436 37.8783 202.298 38.0359C202.16 38.1737 201.983 38.2427 201.766 38.2427H197.955C197.738 38.2427 197.561 38.1737 197.423 38.0359C197.285 37.8783 197.216 37.701 197.216 37.5041V22.2891H189.949V37.5041C189.949 37.701 189.87 37.8783 189.712 38.0359C189.575 38.1737 189.397 38.2427 189.181 38.2427H185.369ZM207.383 38.2427C207.166 38.2427 206.989 38.1737 206.851 38.0359C206.713 37.8783 206.644 37.701 206.644 37.5041V18.3007C206.644 18.084 206.713 17.9068 206.851 17.7689C206.989 17.631 207.166 17.5621 207.383 17.5621H221.564C221.781 17.5621 221.958 17.631 222.096 17.7689C222.234 17.9068 222.303 18.084 222.303 18.3007V21.2551C222.303 21.4717 222.234 21.6588 222.096 21.8164C221.958 21.9543 221.781 22.0232 221.564 22.0232H211.962V25.5093H216.069C218.432 25.5093 220.294 26.0707 221.653 27.1933C223.012 28.316 223.691 29.8523 223.691 31.8022C223.691 32.7082 223.524 33.5551 223.189 34.3429C222.854 35.111 222.362 35.7905 221.712 36.3814C221.081 36.9526 220.294 37.4056 219.348 37.7404C218.422 38.0753 217.329 38.2427 216.069 38.2427H207.383ZM211.962 34.402H215.596C216.167 34.402 216.64 34.2838 217.014 34.0475C217.408 33.7914 217.704 33.4664 217.901 33.0725C218.097 32.6589 218.196 32.2256 218.196 31.7726C218.196 31.0833 217.969 30.4924 217.516 30C217.083 29.5076 216.443 29.2614 215.596 29.2614H211.962V34.402Z" fill="#F5F3F6"/>
<path d="M7.3 38.3V25.5L29.8 9.1L36 13.6L42.2 9.1L29.8 0L0 21.8V38.3H7.3Z" fill="#F5F3F6"/>
<path d="M31.6 38.3V25.5L54 9.1H66.4L54 0L24.3 21.8V38.3H31.6Z" fill="#F5F3F6"/>
</svg>
