<svg width="242" height="47" viewBox="0 0 242 47" fill="none" xmlns="http://www.w3.org/2000/svg">
<g filter="url(#filter0_i_101_2)">
<path d="M59.7653 46.6944C59.5408 46.6944 59.3571 46.6231 59.2143 46.4806C59.0714 46.3176 59 46.1343 59 45.9306V26.0694C59 25.8454 59.0714 25.662 59.2143 25.5194C59.3571 25.3769 59.5408 25.3056 59.7653 25.3056H72.9583C73.1828 25.3056 73.3665 25.3769 73.5093 25.5194C73.6522 25.662 73.7236 25.8454 73.7236 26.0694V29.125C73.7236 29.3491 73.6522 29.5426 73.5093 29.7056C73.3665 29.8481 73.1828 29.9194 72.9583 29.9194H64.5099V45.9306C64.5099 46.1343 64.4282 46.3176 64.265 46.4806C64.1221 46.6231 63.9385 46.6944 63.714 46.6944H59.7653Z" fill="url(#paint0_linear_101_2)"/>
<path d="M75.0537 46.6944C74.8904 46.6944 74.7374 46.6333 74.5945 46.5111C74.4721 46.3685 74.4109 46.2157 74.4109 46.0528C74.4109 45.9509 74.4211 45.8593 74.4415 45.7778L81.6349 26.1611C81.6962 25.937 81.8186 25.7435 82.0023 25.5806C82.2063 25.3972 82.4818 25.3056 82.8287 25.3056H87.3591C87.706 25.3056 87.9713 25.3972 88.1549 25.5806C88.359 25.7435 88.4917 25.937 88.5529 26.1611L95.7157 45.7778C95.7565 45.8593 95.7769 45.9509 95.7769 46.0528C95.7769 46.2157 95.7055 46.3685 95.5626 46.5111C95.4402 46.6333 95.2872 46.6944 95.1035 46.6944H91.3384C91.0323 46.6944 90.7976 46.6231 90.6344 46.4806C90.4915 46.3176 90.3997 46.175 90.3589 46.0528L89.1651 42.9361H80.9921L79.8289 46.0528C79.7881 46.175 79.6963 46.3176 79.5534 46.4806C79.4106 46.6231 79.1657 46.6944 78.8188 46.6944H75.0537ZM82.2471 38.5361H87.9407L85.0939 30.4694L82.2471 38.5361Z" fill="url(#paint1_linear_101_2)"/>
<path d="M98.9549 46.6944C98.7304 46.6944 98.5468 46.6231 98.4039 46.4806C98.2611 46.3176 98.1896 46.1343 98.1896 45.9306V26.0694C98.1896 25.8454 98.2611 25.662 98.4039 25.5194C98.5468 25.3769 98.7304 25.3056 98.9549 25.3056H107.526C109.22 25.3056 110.689 25.5704 111.934 26.1C113.199 26.6093 114.178 27.3833 114.872 28.4222C115.587 29.4611 115.944 30.775 115.944 32.3639C115.944 33.9324 115.587 35.2259 114.872 36.2444C114.178 37.263 113.199 38.0167 111.934 38.5056C110.689 38.9944 109.22 39.2389 107.526 39.2389H103.883V45.9306C103.883 46.1343 103.802 46.3176 103.638 46.4806C103.495 46.6231 103.312 46.6944 103.087 46.6944H98.9549ZM103.791 35.0222H107.373C108.25 35.0222 108.944 34.7981 109.454 34.35C109.985 33.9019 110.25 33.2194 110.25 32.3028C110.25 31.5287 110.026 30.8769 109.577 30.3472C109.128 29.8176 108.393 29.5528 107.373 29.5528H103.791V35.0222Z" fill="url(#paint2_linear_101_2)"/>
<path d="M117.651 46.6944C117.488 46.6944 117.335 46.6333 117.192 46.5111C117.07 46.3685 117.008 46.2157 117.008 46.0528C117.008 45.9509 117.019 45.8593 117.039 45.7778L124.232 26.1611C124.294 25.937 124.416 25.7435 124.6 25.5806C124.804 25.3972 125.079 25.3056 125.426 25.3056H129.956C130.303 25.3056 130.569 25.3972 130.752 25.5806C130.956 25.7435 131.089 25.937 131.15 26.1611L138.313 45.7778C138.354 45.8593 138.374 45.9509 138.374 46.0528C138.374 46.2157 138.303 46.3685 138.16 46.5111C138.038 46.6333 137.885 46.6944 137.701 46.6944H133.936C133.63 46.6944 133.395 46.6231 133.232 46.4806C133.089 46.3176 132.997 46.175 132.956 46.0528L131.763 42.9361H123.59L122.426 46.0528C122.386 46.175 122.294 46.3176 122.151 46.4806C122.008 46.6231 121.763 46.6944 121.416 46.6944H117.651ZM124.845 38.5361H130.538L127.691 30.4694L124.845 38.5361Z" fill="url(#paint3_linear_101_2)"/>
<path d="M140.052 46.6944C139.848 46.6944 139.675 46.6333 139.532 46.5111C139.41 46.3685 139.348 46.1954 139.348 45.9917C139.348 45.8491 139.379 45.737 139.44 45.6556L145.685 35.6028L139.991 26.3139C139.91 26.1917 139.869 26.0694 139.869 25.9472C139.869 25.7843 139.93 25.6417 140.052 25.5194C140.175 25.3769 140.328 25.3056 140.512 25.3056H144.919C145.226 25.3056 145.47 25.3667 145.654 25.4889C145.838 25.5907 145.97 25.7231 146.052 25.8861L150.582 33.4639H152.358V26.0694C152.358 25.8454 152.429 25.662 152.572 25.5194C152.715 25.3769 152.899 25.3056 153.123 25.3056H156.888C157.113 25.3056 157.296 25.3769 157.439 25.5194C157.582 25.662 157.653 25.8454 157.653 26.0694V33.4639H159.398L163.929 25.8861C164.031 25.7231 164.173 25.5907 164.357 25.4889C164.541 25.3667 164.775 25.3056 165.061 25.3056H169.5C169.683 25.3056 169.836 25.3769 169.959 25.5194C170.081 25.6417 170.142 25.7843 170.142 25.9472C170.142 26.0694 170.102 26.1917 170.02 26.3139L164.326 35.6028L170.571 45.6556C170.632 45.737 170.663 45.8491 170.663 45.9917C170.663 46.1954 170.591 46.3685 170.449 46.5111C170.326 46.6333 170.163 46.6944 169.959 46.6944H165.428C165.102 46.6944 164.857 46.6231 164.694 46.4806C164.551 46.3176 164.439 46.1954 164.357 46.1139L159.612 38.3222H157.653V45.9306C157.653 46.1546 157.582 46.338 157.439 46.4806C157.296 46.6231 157.113 46.6944 156.888 46.6944H153.123C152.899 46.6944 152.715 46.6231 152.572 46.4806C152.429 46.338 152.358 46.1546 152.358 45.9306V38.3222H150.399L145.654 46.1139C145.572 46.1954 145.45 46.3176 145.287 46.4806C145.144 46.6231 144.909 46.6944 144.583 46.6944H140.052Z" fill="url(#paint4_linear_101_2)"/>
<path d="M188.822 47C186.903 47 185.25 46.6843 183.863 46.0528C182.475 45.4213 181.394 44.4944 180.618 43.2722C179.863 42.05 179.445 40.5324 179.363 38.7194C179.343 37.8843 179.332 36.988 179.332 36.0306C179.332 35.0731 179.343 34.1565 179.363 33.2806C179.445 31.5083 179.873 30.0009 180.649 28.7583C181.424 27.5157 182.506 26.5787 183.893 25.9472C185.281 25.3157 186.924 25 188.822 25C190.169 25 191.413 25.1731 192.556 25.5194C193.699 25.8454 194.699 26.3343 195.556 26.9861C196.413 27.6176 197.076 28.3917 197.546 29.3083C198.035 30.2046 198.29 31.2231 198.311 32.3639C198.331 32.5472 198.27 32.7 198.127 32.8222C198.005 32.9444 197.852 33.0056 197.668 33.0056H193.536C193.27 33.0056 193.066 32.9546 192.923 32.8528C192.781 32.7306 192.658 32.5167 192.556 32.2111C192.27 31.1315 191.801 30.3981 191.148 30.0111C190.515 29.6037 189.73 29.4 188.791 29.4C187.669 29.4 186.781 29.7157 186.128 30.3472C185.475 30.9583 185.118 31.987 185.057 33.4333C184.995 35.1037 184.995 36.8148 185.057 38.5667C185.118 40.013 185.475 41.0519 186.128 41.6833C186.781 42.2944 187.669 42.6 188.791 42.6C189.73 42.6 190.526 42.3963 191.179 41.9889C191.832 41.5815 192.291 40.8481 192.556 39.7889C192.638 39.4833 192.75 39.2796 192.893 39.1778C193.056 39.0556 193.27 38.9944 193.536 38.9944H197.668C197.852 38.9944 198.005 39.0556 198.127 39.1778C198.27 39.3 198.331 39.4528 198.311 39.6361C198.29 40.7769 198.035 41.8056 197.546 42.7222C197.076 43.6185 196.413 44.3926 195.556 45.0444C194.699 45.6759 193.699 46.1648 192.556 46.5111C191.413 46.837 190.169 47 188.822 47Z" fill="url(#paint5_linear_101_2)"/>
<path d="M202.295 46.6944C202.07 46.6944 201.887 46.6231 201.744 46.4806C201.601 46.338 201.53 46.1546 201.53 45.9306V26.0694C201.53 25.8454 201.601 25.662 201.744 25.5194C201.887 25.3769 202.07 25.3056 202.295 25.3056H219.284C219.508 25.3056 219.692 25.3769 219.835 25.5194C219.977 25.662 220.049 25.8454 220.049 26.0694V45.9306C220.049 46.1343 219.977 46.3176 219.835 46.4806C219.692 46.6231 219.508 46.6944 219.284 46.6944H215.335C215.11 46.6944 214.927 46.6231 214.784 46.4806C214.641 46.3176 214.57 46.1343 214.57 45.9306V30.1944H207.039V45.9306C207.039 46.1343 206.958 46.3176 206.795 46.4806C206.652 46.6231 206.468 46.6944 206.244 46.6944H202.295Z" fill="url(#paint6_linear_101_2)"/>
<path d="M225.103 46.6944C224.879 46.6944 224.695 46.6231 224.552 46.4806C224.409 46.3176 224.338 46.1343 224.338 45.9306V26.0694C224.338 25.8454 224.409 25.662 224.552 25.5194C224.695 25.3769 224.879 25.3056 225.103 25.3056H239.796C240.021 25.3056 240.204 25.3769 240.347 25.5194C240.49 25.662 240.561 25.8454 240.561 26.0694V29.125C240.561 29.3491 240.49 29.5426 240.347 29.7056C240.204 29.8481 240.021 29.9194 239.796 29.9194H229.848V33.525H234.103C236.551 33.525 238.48 34.1056 239.888 35.2667C241.296 36.4278 242 38.0167 242 40.0333C242 40.9704 241.827 41.8463 241.48 42.6611C241.133 43.4556 240.623 44.1583 239.949 44.7694C239.296 45.3602 238.48 45.8287 237.5 46.175C236.541 46.5213 235.409 46.6944 234.103 46.6944H225.103ZM229.848 42.7222H233.613C234.205 42.7222 234.694 42.6 235.082 42.3556C235.49 42.0907 235.796 41.7546 236 41.3472C236.204 40.9194 236.306 40.4713 236.306 40.0028C236.306 39.2898 236.072 38.6787 235.602 38.1694C235.153 37.6602 234.49 37.4056 233.613 37.4056H229.848V42.7222Z" fill="url(#paint7_linear_101_2)"/>
</g>
<g filter="url(#filter1_i_101_2)">
<path d="M9.01506 47V31.2924L36.8012 11.1671L44.4578 16.6893L52.1145 11.1671L36.8012 0L0 26.752V47H9.01506Z" fill="url(#paint8_linear_101_2)"/>
<path d="M39.0241 47V31.2924L66.6867 11.1671H82L66.6867 0L30.009 26.752V47H39.0241Z" fill="url(#paint9_linear_101_2)"/>
</g>
<defs>
<filter id="filter0_i_101_2" x="59" y="25" width="183" height="26" filterUnits="userSpaceOnUse" color-interpolation-filters="sRGB">
<feFlood flood-opacity="0" result="BackgroundImageFix"/>
<feBlend mode="normal" in="SourceGraphic" in2="BackgroundImageFix" result="shape"/>
<feColorMatrix in="SourceAlpha" type="matrix" values="0 0 0 0 0 0 0 0 0 0 0 0 0 0 0 0 0 0 127 0" result="hardAlpha"/>
<feOffset dy="4"/>
<feGaussianBlur stdDeviation="2"/>
<feComposite in2="hardAlpha" operator="arithmetic" k2="-1" k3="1"/>
<feColorMatrix type="matrix" values="0 0 0 0 0.479167 0 0 0 0 0.0786635 0 0 0 0 0.198815 0 0 0 0.25 0"/>
<feBlend mode="normal" in2="shape" result="effect1_innerShadow_101_2"/>
</filter>
<filter id="filter1_i_101_2" x="0" y="0" width="82" height="51" filterUnits="userSpaceOnUse" color-interpolation-filters="sRGB">
<feFlood flood-opacity="0" result="BackgroundImageFix"/>
<feBlend mode="normal" in="SourceGraphic" in2="BackgroundImageFix" result="shape"/>
<feColorMatrix in="SourceAlpha" type="matrix" values="0 0 0 0 0 0 0 0 0 0 0 0 0 0 0 0 0 0 127 0" result="hardAlpha"/>
<feOffset dy="4"/>
<feGaussianBlur stdDeviation="2"/>
<feComposite in2="hardAlpha" operator="arithmetic" k2="-1" k3="1"/>
<feColorMatrix type="matrix" values="0 0 0 0 0.479167 0 0 0 0 0.0786635 0 0 0 0 0.198815 0 0 0 0.25 0"/>
<feBlend mode="normal" in2="shape" result="effect1_innerShadow_101_2"/>
</filter>
<linearGradient id="paint0_linear_101_2" x1="92.6854" y1="-9.97038" x2="220.982" y2="63.5508" gradientUnits="userSpaceOnUse">
<stop stop-color="#148EFF"/>
<stop offset="1" stop-color="#0C09CD"/>
</linearGradient>
<linearGradient id="paint1_linear_101_2" x1="92.6854" y1="-9.97038" x2="220.982" y2="63.5508" gradientUnits="userSpaceOnUse">
<stop stop-color="#148EFF"/>
<stop offset="1" stop-color="#0C09CD"/>
</linearGradient>
<linearGradient id="paint2_linear_101_2" x1="92.6854" y1="-9.97038" x2="220.982" y2="63.5508" gradientUnits="userSpaceOnUse">
<stop stop-color="#148EFF"/>
<stop offset="1" stop-color="#0C09CD"/>
</linearGradient>
<linearGradient id="paint3_linear_101_2" x1="92.6854" y1="-9.97038" x2="220.982" y2="63.5508" gradientUnits="userSpaceOnUse">
<stop stop-color="#148EFF"/>
<stop offset="1" stop-color="#0C09CD"/>
</linearGradient>
<linearGradient id="paint4_linear_101_2" x1="92.6854" y1="-9.97038" x2="220.982" y2="63.5508" gradientUnits="userSpaceOnUse">
<stop stop-color="#148EFF"/>
<stop offset="1" stop-color="#0C09CD"/>
</linearGradient>
<linearGradient id="paint5_linear_101_2" x1="92.6854" y1="-9.97038" x2="220.982" y2="63.5508" gradientUnits="userSpaceOnUse">
<stop stop-color="#148EFF"/>
<stop offset="1" stop-color="#0C09CD"/>
</linearGradient>
<linearGradient id="paint6_linear_101_2" x1="92.6854" y1="-9.97038" x2="220.982" y2="63.5508" gradientUnits="userSpaceOnUse">
<stop stop-color="#148EFF"/>
<stop offset="1" stop-color="#0C09CD"/>
</linearGradient>
<linearGradient id="paint7_linear_101_2" x1="92.6854" y1="-9.97038" x2="220.982" y2="63.5508" gradientUnits="userSpaceOnUse">
<stop stop-color="#148EFF"/>
<stop offset="1" stop-color="#0C09CD"/>
</linearGradient>
<linearGradient id="paint8_linear_101_2" x1="15.094" y1="-74.7094" x2="90.3734" y2="-65.6613" gradientUnits="userSpaceOnUse">
<stop stop-color="#148EFF"/>
<stop offset="1" stop-color="#0C09CD"/>
</linearGradient>
<linearGradient id="paint9_linear_101_2" x1="15.094" y1="-74.7094" x2="90.3734" y2="-65.6613" gradientUnits="userSpaceOnUse">
<stop stop-color="#148EFF"/>
<stop offset="1" stop-color="#0C09CD"/>
</linearGradient>
</defs>
</svg>
