<svg width="15" height="12" viewBox="0 0 15 12" fill="" xmlns="http://www.w3.org/2000/svg">
<path d="M9.36049 0.268163C8.98358 -0.0894485 8.37247 -0.0893265 7.99569 0.268163C7.61865 0.62602 7.61865 1.20592 7.99581 1.56378L11.7044 5.08359L0.96499 5.08457C0.431987 5.08469 -3.84963e-07 5.4947 -4.2921e-07 6.00083C0.000128273 6.50672 0.432115 6.9166 0.965118 6.9166L11.705 6.91563L7.99543 10.4362C7.61852 10.7939 7.61852 11.3741 7.99543 11.7317C8.18395 11.9105 8.43089 12 8.67796 12C8.9249 12 9.17184 11.9105 9.36036 11.7318L14.7173 6.64754C14.8983 6.47582 15 6.2429 15 5.99986C14.9999 5.75681 14.8982 5.52402 14.7172 5.35193L9.36049 0.268163Z" fill=""/>
</svg>
