<svg width="19" height="21" viewBox="0 0 19 21" fill="" xmlns="http://www.w3.org/2000/svg">
<path d="M11.6111 0H7.38891C3.31461 0 0 3.29757 0 7.35093V10.5013C0 13.347 1.64968 15.9295 4.22223 17.1443V20.6526C4.22223 20.9572 4.60527 21.1165 4.82287 20.9001L7.88644 17.8523H11.6111C15.6854 17.8523 19 14.5547 19 10.5013V7.35093C19 3.29757 15.6854 0 11.6111 0Z" fill=""/>
<path d="M10.2268 6.67542C10.0317 6.67542 9.87354 6.83357 9.87354 7.02865C9.87354 7.22373 10.0317 7.38189 10.2268 7.38189C11.0059 7.38189 11.6398 8.01576 11.6398 8.79491C11.6398 8.98738 11.8006 9.14815 11.993 9.14815C12.1855 9.14815 12.3463 8.98738 12.3463 8.79491C12.3463 7.62618 11.3955 6.67542 10.2268 6.67542Z" fill=""/>
<path d="M10.2266 5.26233C10.0959 5.26233 9.96404 5.26957 9.83456 5.28385C9.64064 5.30525 9.50078 5.4798 9.52218 5.67376C9.54358 5.86772 9.7185 6.00721 9.91209 5.98614C10.0159 5.97468 10.1217 5.96884 10.2266 5.96884C11.7849 5.96884 13.0526 7.23658 13.0526 8.79485C13.0526 8.89978 13.0468 9.00558 13.0353 9.10939C13.0142 9.30066 13.1563 9.47823 13.3477 9.4993C13.539 9.52036 13.7164 9.37827 13.7376 9.18691C13.7519 9.05744 13.7591 8.92557 13.7591 8.79485C13.7591 6.84705 12.1744 5.26233 10.2266 5.26233Z" fill=""/>
<path d="M10.2266 3.84937C10.1003 3.84937 9.97246 3.85417 9.84663 3.86373C9.65209 3.87846 9.50631 4.04817 9.52105 4.24267C9.53574 4.43721 9.70602 4.58299 9.89999 4.56825C10.0081 4.56002 10.118 4.55588 10.2266 4.55588C12.564 4.55588 14.4656 6.45749 14.4656 8.79491C14.4656 9.12563 14.4274 9.45486 14.3522 9.77341C14.309 9.95595 14.4214 10.1457 14.6024 10.1953C14.7929 10.2474 14.9944 10.128 15.0397 9.93591C15.1276 9.56418 15.1721 9.18031 15.1721 8.79491C15.1721 6.06791 12.9536 3.84937 10.2266 3.84937Z" fill=""/>
<path d="M14.9943 13.0387L14.6863 11.3704C14.6608 11.2325 14.5541 11.1241 14.4167 11.0966L11.9945 10.6122C11.882 10.5898 11.7661 10.6249 11.685 10.7059L10.701 11.69C9.04302 10.9471 8.12283 10.0249 7.31319 8.29576L8.29406 7.31493C8.37501 7.23394 8.41017 7.11778 8.38774 7.00548L7.90332 4.58329C7.87583 4.4459 7.76742 4.33906 7.62959 4.31361L5.96125 4.00568C5.91557 3.99729 5.86853 3.99817 5.82318 4.00849C5.38267 4.10855 4.98074 4.33051 4.6608 4.65052C4.10683 5.20449 3.89511 6.01285 4.04859 6.98822C4.30623 8.62605 5.10866 10.9053 6.58911 12.3917L6.60934 12.4118C8.09458 13.8912 10.3739 14.6937 12.0118 14.9514C12.2182 14.9839 12.4169 15 12.6075 15C13.3177 15 13.9127 14.776 14.3496 14.3391C14.6696 14.0192 14.8916 13.6172 14.9916 13.1768C15.0018 13.1314 15.0027 13.0845 14.9943 13.0387Z" fill=""/>
</svg>
