<svg width="31" height="30" viewBox="0 0 31 30" fill="" xmlns="http://www.w3.org/2000/svg">
<path d="M29.2674 22.5231L24.9119 18.1657C24.327 17.5838 23.5437 17.2631 22.7067 17.2631C21.8357 17.2631 21.0133 17.6061 20.3915 18.2283L18.6961 19.9233C17.3786 19.1911 15.6276 18.1839 13.8096 16.3659C11.9938 14.5495 10.9865 12.8036 10.2505 11.479L11.9475 9.78321C13.2092 8.51887 13.2351 6.49048 12.0052 5.26179L7.65063 0.907051C7.06733 0.32213 6.28407 0 5.44496 0C4.59339 0 3.78781 0.327865 3.1696 0.924629C2.79561 1.22582 0.918807 2.88259 0.219321 6.29937C-0.760035 11.0818 1.49014 15.6833 7.9861 22.1819C15.2426 29.4361 21.4375 30 23.1634 30C23.5226 30 23.7394 29.9778 23.7973 29.9711C27.1815 29.5744 28.3932 28.0715 29.278 26.974C30.4244 25.5518 30.4204 23.6803 29.2674 22.5231ZM27.8222 25.8003C26.9905 26.8318 26.2052 27.8059 23.5797 28.1137C23.5784 28.1138 23.4348 28.1299 23.1634 28.1299C21.6193 28.1299 16.0566 27.6056 9.3084 20.8596C3.31795 14.8666 1.21538 10.7568 2.05125 6.67435C2.66135 3.69415 4.2811 2.42745 4.34406 2.37933L4.39991 2.33806L4.4489 2.28894C4.7193 2.0188 5.07297 1.86995 5.44484 1.86995C5.78342 1.86995 6.09658 1.99686 6.32745 2.22848L10.6831 6.58422C11.1842 7.08487 11.1575 7.92735 10.6244 8.46165L8.70516 10.3792L8.67362 10.4123C8.17347 10.9632 8.23231 11.7076 8.50782 12.1925C9.30279 13.6271 10.3917 15.5919 12.4871 17.6879C14.5754 19.7762 16.5374 20.8643 17.968 21.6578C18.1113 21.7382 18.407 21.8731 18.7771 21.8731C19.2142 21.8731 19.6154 21.6881 19.9125 21.3509L21.7137 19.5502C21.9826 19.2812 22.3351 19.133 22.7065 19.133C23.0458 19.133 23.3606 19.2602 23.591 19.4894L27.9436 23.8439C28.4965 24.3987 28.2682 25.2471 27.8222 25.8003Z" fill=""/>
<path d="M18.2568 4.58168C19.8634 4.76655 21.755 5.73968 23.076 7.06073C24.4092 8.39401 25.3847 10.3049 25.5609 11.9288C25.6129 12.4079 26.018 12.763 26.4892 12.763C26.5229 12.763 26.5571 12.7611 26.5912 12.7575C27.1046 12.7018 27.4756 12.2405 27.4199 11.7271C27.1971 9.6743 26.0392 7.37962 24.3983 5.73855C22.7727 4.11282 20.5014 2.95781 18.4706 2.72407C17.9579 2.6646 17.494 3.03311 17.4349 3.54597C17.3759 4.05884 17.7437 4.52259 18.2568 4.58168Z" fill=""/>
<path d="M17.3829 8.49835C18.2518 8.59846 19.4543 9.24297 20.2421 10.0307C21.0366 10.8253 21.6823 12.0393 21.7774 12.9175C21.8294 13.3968 22.2346 13.7518 22.7058 13.7518C22.7395 13.7518 22.7735 13.7499 22.8077 13.7463C23.321 13.6906 23.6921 13.2293 23.6364 12.716C23.4739 11.2165 22.4784 9.62269 21.5641 8.70841C20.6581 7.80223 19.0798 6.81153 17.5967 6.64062C17.0832 6.58091 16.62 6.94954 16.5609 7.4624C16.5019 7.97539 16.8699 8.43926 17.3829 8.49835Z" fill=""/>
</svg>
