<svg width="27" height="15" viewBox="0 0 27 15" fill="" xmlns="http://www.w3.org/2000/svg">
<path d="M26.3019 13.3791C26.2306 13.2607 25.7894 12.311 23.6661 10.3589C21.4434 8.31472 21.7419 8.64665 24.4192 5.11213C26.0498 2.95954 26.7017 1.64498 26.4977 1.08301C26.3036 0.547324 25.1043 0.688639 25.1043 0.688639L21.1166 0.711644C21.1166 0.711644 20.8213 0.672207 20.6007 0.80202C20.3867 0.930189 20.249 1.22596 20.249 1.22596C20.249 1.22596 19.6171 2.89217 18.7744 4.3086C16.9978 7.29758 16.2862 7.45533 15.9959 7.26965C15.3208 6.83748 15.49 5.53114 15.49 4.60438C15.49 1.70742 15.9329 0.499671 14.6258 0.187464C14.1912 0.0839423 13.8727 0.014928 12.763 0.00342559C11.3398 -0.0113632 10.1338 0.00835518 9.45207 0.338638C8.99757 0.558826 8.64757 1.05014 8.86155 1.07808C9.1253 1.11258 9.72246 1.23747 10.0393 1.6647C10.449 2.21517 10.4341 3.45414 10.4341 3.45414C10.4341 3.45414 10.6696 6.86378 9.88501 7.28772C9.34591 7.57857 8.60776 6.98537 7.02363 4.27245C6.21248 2.88395 5.59874 1.34756 5.59874 1.34756C5.59874 1.34756 5.48097 1.06165 5.2703 0.908828C5.01485 0.723146 4.65655 0.663991 4.65655 0.663991L0.864593 0.686996C0.864593 0.686996 0.295632 0.703428 0.0866267 0.948265C-0.0991562 1.16681 0.0716977 1.61705 0.0716977 1.61705C0.0716977 1.61705 3.04091 8.49711 6.40159 11.9659C9.48525 15.1455 12.9853 14.9368 12.9853 14.9368H14.5711C14.5711 14.9368 15.0504 14.8842 15.2943 14.623C15.5199 14.383 15.5116 13.9328 15.5116 13.9328C15.5116 13.9328 15.4801 11.8246 16.4687 11.514C17.4424 11.2084 18.6931 13.5516 20.0185 14.4537C21.0204 15.1356 21.7818 14.9861 21.7818 14.9861L25.3266 14.9368C25.3266 14.9368 27.1811 14.8234 26.3019 13.3791Z" fill=""/>
</svg>
