<svg width="22" height="22" viewBox="0 0 22 22" fill="" xmlns="http://www.w3.org/2000/svg">
<path d="M9.62987 13.0608L13.208 11L9.62987 8.93918V13.0608Z" fill=""/>
<path d="M11 0C4.9258 0 0 4.9258 0 11C0 17.0742 4.9258 22 11 22C17.0742 22 22 17.0742 22 11C22 4.9258 17.0742 0 11 0ZM17.8733 11.0112C17.8733 11.0112 17.8733 13.2421 17.5903 14.3178C17.4317 14.9066 16.9675 15.3709 16.3786 15.5293C15.3029 15.8125 11 15.8125 11 15.8125C11 15.8125 6.70833 15.8125 5.62135 15.5181C5.03255 15.3596 4.56828 14.8952 4.40967 14.3064C4.12651 13.2421 4.12651 11 4.12651 11C4.12651 11 4.12651 8.76932 4.40967 7.69359C4.56812 7.10478 5.04379 6.6291 5.62135 6.47066C6.69708 6.1875 11 6.1875 11 6.1875C11 6.1875 15.3029 6.1875 16.3786 6.4819C16.9675 6.64035 17.4317 7.10478 17.5903 7.69359C17.8847 8.76932 17.8733 11.0112 17.8733 11.0112Z" fill=""/>
</svg>
