<svg width="72" height="72" viewBox="0 0 72 72" fill="" xmlns="http://www.w3.org/2000/svg">
<path d="M70.8387 20.9032H58.0645V8.12903C58.0645 7.82104 57.9422 7.52566 57.7244 7.30788C57.5066 7.09009 57.2112 6.96774 56.9032 6.96774H49.9355C49.6275 6.96781 49.3322 7.0902 49.1144 7.308L47.6129 8.80955V1.16129C47.6129 0.853297 47.4906 0.557918 47.2728 0.340134C47.055 0.12235 46.7596 0 46.4516 0H40.6452C40.3372 6.57725e-05 40.0419 0.122459 39.8241 0.340258L0.340258 39.8241C0.122459 40.0419 6.57725e-05 40.3372 0 40.6452V70.8387C0 71.1467 0.12235 71.4421 0.340134 71.6599C0.557918 71.8776 0.853297 72 1.16129 72H29.0323C29.3402 71.9999 29.6356 71.8775 29.8533 71.6597L71.6597 29.8533C71.8775 29.6356 71.9999 29.3402 72 29.0323V22.0645C72 21.7565 71.8776 21.4611 71.6599 21.2434C71.4421 21.0256 71.1467 20.9032 70.8387 20.9032ZM68.0354 23.2258L41.3257 49.9355H30.6743L57.384 23.2258H68.0354ZM55.7419 21.5826L29.0323 48.2923V37.6421L55.7419 10.9324V21.5826ZM50.4163 9.29032H54.0999L27.3902 36H23.7066L50.4163 9.29032ZM28.5515 63.871H9.7711L19.7419 53.9001V58.0645C19.7419 58.3725 19.8643 58.6679 20.0821 58.8857C20.2999 59.1035 20.5952 59.2258 20.9032 59.2258H33.1966L28.5515 63.871ZM19.7419 37.1613V50.616L8.12903 62.2289V41.1259L45.2903 3.96465V11.1321L20.0822 36.3403C19.8644 36.558 19.742 36.8533 19.7419 37.1613ZM41.1259 2.32258H43.6483L6.48697 39.4839H3.96465L41.1259 2.32258ZM2.32258 41.8064H5.80645V65.0323C5.80645 65.3402 5.9288 65.6356 6.14659 65.8534C6.36437 66.0712 6.65975 66.1936 6.96774 66.1936H27.871V69.6774H2.32258V41.8064ZM30.1935 68.0354V65.513L36.4808 59.2258H39.0031L30.1935 68.0354ZM40.6452 56.9032H22.0645V38.3226H26.7097V51.0968C26.7097 51.4048 26.832 51.7001 27.0498 51.9179C27.2676 52.1357 27.563 52.2581 27.871 52.2581H40.6452V56.9032ZM42.9677 55.2612V51.5775L69.6774 24.8679V28.5515L42.9677 55.2612Z" fill=""/>
</svg>
