<svg width="72" height="70" viewBox="0 0 72 70" fill="" xmlns="http://www.w3.org/2000/svg">
<path d="M71.9994 34.6154C71.9993 34.3847 71.9297 34.1594 71.7996 33.9684C71.6694 33.7774 71.4847 33.6295 71.2692 33.5438L49.2878 24.8077L71.2692 16.0716C71.4849 15.9861 71.6698 15.8383 71.8001 15.6472C71.9304 15.4562 72 15.2307 72 15C72 14.7692 71.9304 14.5438 71.8001 14.3528C71.6698 14.1617 71.4849 14.0139 71.2692 13.9284L36.4311 0.0822075C36.1543 -0.0274025 35.8457 -0.0274025 35.5689 0.0822075L0.730779 13.9284C0.515091 14.0139 0.330169 14.1617 0.1999 14.3528C0.0696314 14.5438 0 14.7692 0 15C0 15.2307 0.0696314 15.4562 0.1999 15.6472C0.330169 15.8383 0.515091 15.9861 0.730779 16.0716L22.7122 24.8077L0.730779 33.5438C0.515091 33.6293 0.330169 33.7771 0.1999 33.9682C0.0696314 34.1592 0 34.3846 0 34.6154C0 34.8461 0.0696314 35.0716 0.1999 35.2626C0.330169 35.4536 0.515091 35.6015 0.730779 35.687L22.7122 44.4231L0.730779 53.1591C0.515091 53.2447 0.330169 53.3925 0.1999 53.5835C0.0696314 53.7746 0 54 0 54.2308C0 54.4615 0.0696314 54.687 0.1999 54.878C0.330169 55.069 0.515091 55.2169 0.730779 55.3024L35.5689 69.1486C35.8457 69.2582 36.1543 69.2582 36.4311 69.1486L71.2692 55.3024C71.4849 55.2169 71.6698 55.069 71.8001 54.878C71.9304 54.687 72 54.4615 72 54.2308C72 54 71.9304 53.7746 71.8001 53.5835C71.6698 53.3925 71.4849 53.2447 71.2692 53.1591L49.2878 44.4231L71.2692 35.687C71.4847 35.6013 71.6694 35.4534 71.7996 35.2624C71.9297 35.0714 71.9993 34.846 71.9994 34.6154ZM4.28862 15L36 2.39711L67.7114 15L36 27.6029L4.28862 15ZM67.7114 54.2308L36 66.8337L4.28862 54.2308L25.8389 45.6663L35.5689 49.5332C35.8457 49.6428 36.1543 49.6428 36.4311 49.5332L46.1611 45.6663L67.7114 54.2308ZM36 47.2183L4.28862 34.6154L25.8389 26.051L35.5689 29.9178C35.8457 30.0274 36.1543 30.0274 36.4311 29.9178L46.1611 26.051L67.7114 34.6154L36 47.2183Z" fill=""/>
</svg>
