<svg width="72" height="60" viewBox="0 0 72 60" fill="" xmlns="http://www.w3.org/2000/svg">
<path d="M67.9355 0H4.06452C2.9869 0.00118346 1.95377 0.427043 1.19178 1.18414C0.429798 1.94125 0.00119109 2.96776 0 4.03846V44.4231C0.00119109 45.4938 0.429798 46.5203 1.19178 47.2774C1.95377 48.0345 2.9869 48.4604 4.06452 48.4615H27.4921L25.8344 54.2308H19.7419C19.4339 54.2308 19.1386 54.3523 18.9208 54.5687C18.703 54.7851 18.5806 55.0786 18.5806 55.3846V58.8462C18.5806 59.1522 18.703 59.4457 18.9208 59.662C19.1386 59.8784 19.4339 60 19.7419 60H52.2581C52.5661 60 52.8614 59.8784 53.0792 59.662C53.297 59.4457 53.4194 59.1522 53.4194 58.8462V55.3846C53.4194 55.0786 53.297 54.7851 53.0792 54.5687C52.8614 54.3523 52.5661 54.2308 52.2581 54.2308H46.1656L44.5079 48.4615H67.9355C69.0131 48.4604 70.0462 48.0345 70.8082 47.2774C71.5702 46.5203 71.9988 45.4938 72 44.4231V4.03846C71.9988 2.96776 71.5702 1.94125 70.8082 1.18414C70.0462 0.427043 69.0131 0.00118346 67.9355 0ZM2.32258 16.6615L22.0645 23.9755V30C22.0645 30.237 22.1379 30.4682 22.2748 30.6622C22.4117 30.8563 22.6053 31.0038 22.8295 31.0846L23.4726 31.3168L2.32258 39.1529V16.6615ZM36 17.2341L26.624 13.8462L36 10.4582L45.376 13.8462L36 17.2341ZM47.6129 15.4933V29.1923L37.1613 32.9683V19.2692L47.6129 15.4933ZM34.8387 19.2692V32.9683L24.3871 29.1923V15.4933L34.8387 19.2692ZM26.8389 32.5327L35.6037 35.7C35.8597 35.7923 36.1403 35.7923 36.3963 35.7L45.1611 32.5327L63.2395 39.2308H8.76048L26.8389 32.5327ZM51.0968 56.5385V57.6923H20.9032V56.5385H51.0968ZM28.2498 54.2308L29.9076 48.4615H42.0924L43.7502 54.2308H28.2498ZM69.6774 44.4231C69.677 44.882 69.4934 45.322 69.1668 45.6465C68.8402 45.971 68.3974 46.1535 67.9355 46.1538H4.06452C3.60264 46.1535 3.1598 45.971 2.83321 45.6465C2.50661 45.322 2.32296 44.882 2.32258 44.4231V41.5385H69.6774V44.4231ZM69.6774 39.1529L48.5274 31.3168L49.1705 31.0846C49.3947 31.0038 49.5883 30.8563 49.7252 30.6622C49.8621 30.4682 49.9355 30.237 49.9355 30V23.9755L69.6774 16.6615V39.1529ZM69.6774 14.1981L49.9355 21.5135V13.8462C49.9355 13.6092 49.8621 13.378 49.7252 13.1839C49.5883 12.9899 49.3947 12.8424 49.1705 12.7615L36.3963 8.14615C36.1403 8.0538 35.8597 8.0538 35.6037 8.14615L22.8295 12.7615C22.6053 12.8424 22.4117 12.9899 22.2748 13.1839C22.1379 13.378 22.0645 13.6092 22.0645 13.8462V21.5135L2.32258 14.1981V4.03846C2.32296 3.57955 2.50661 3.13954 2.83321 2.81505C3.1598 2.49055 3.60264 2.30807 4.06452 2.30769H67.9355C68.3974 2.30807 68.8402 2.49055 69.1668 2.81505C69.4934 3.13954 69.677 3.57955 69.6774 4.03846V14.1981Z" fill=""/>
<path d="M13.9355 42.6923H5.80645C5.49846 42.6923 5.20308 42.8139 4.9853 43.0303C4.76751 43.2466 4.64516 43.5401 4.64516 43.8462C4.64516 44.1522 4.76751 44.4457 4.9853 44.662C5.20308 44.8784 5.49846 45 5.80645 45H13.9355C14.2435 45 14.5389 44.8784 14.7566 44.662C14.9744 44.4457 15.0968 44.1522 15.0968 43.8462C15.0968 43.5401 14.9744 43.2466 14.7566 43.0303C14.5389 42.8139 14.2435 42.6923 13.9355 42.6923Z" fill=""/>
<path d="M18.5806 42.6923H17.4194C17.1114 42.6923 16.816 42.8139 16.5982 43.0303C16.3804 43.2466 16.2581 43.5401 16.2581 43.8462C16.2581 44.1522 16.3804 44.4457 16.5982 44.662C16.816 44.8784 17.1114 45 17.4194 45H18.5806C18.8886 45 19.184 44.8784 19.4018 44.662C19.6196 44.4457 19.7419 44.1522 19.7419 43.8462C19.7419 43.5401 19.6196 43.2466 19.4018 43.0303C19.184 42.8139 18.8886 42.6923 18.5806 42.6923Z" fill=""/>
<path d="M5.80645 13.8462H12.7742C13.0822 13.8462 13.3776 13.7246 13.5953 13.5082C13.8131 13.2918 13.9355 12.9983 13.9355 12.6923V5.76923C13.9355 5.46321 13.8131 5.16973 13.5953 4.95334C13.3776 4.73695 13.0822 4.61538 12.7742 4.61538H5.80645C5.49846 4.61538 5.20308 4.73695 4.9853 4.95334C4.76751 5.16973 4.64516 5.46321 4.64516 5.76923V12.6923C4.64516 12.9983 4.76751 13.2918 4.9853 13.5082C5.20308 13.7246 5.49846 13.8462 5.80645 13.8462ZM6.96774 6.92308H11.6129V11.5385H6.96774V6.92308Z" fill=""/>
<path d="M54.5806 10.3846H66.1936C66.5015 10.3846 66.7969 10.263 67.0147 10.0467C67.2325 9.83027 67.3548 9.53679 67.3548 9.23077V5.76923C67.3548 5.46321 67.2325 5.16973 67.0147 4.95334C66.7969 4.73695 66.5015 4.61538 66.1936 4.61538H54.5806C54.2727 4.61538 53.9773 4.73695 53.7595 4.95334C53.5417 5.16973 53.4194 5.46321 53.4194 5.76923V9.23077C53.4194 9.53679 53.5417 9.83027 53.7595 10.0467C53.9773 10.263 54.2727 10.3846 54.5806 10.3846ZM55.7419 6.92308H65.0323V8.07692H55.7419V6.92308Z" fill=""/>
</svg>
